<svg xmlns="http://www.w3.org/2000/svg" aria-hidden="true"
  style="position:absolute;width:0;height:0;overflow:hidden">
  <defs>
    <!-- Logo -->
    <symbol id="logo" viewBox="0 0 142 36">
      <path
        d="M53.5393 6.92864C53.466 5.82232 54.3078 4.86822 55.414 4.80383L137.888 0.00342575C138.975 -0.0598638 139.913 0.761245 139.993 1.8481L141.994 28.7689C142.077 29.8783 141.237 30.841 140.127 30.9093L57.4554 35.9962C56.3595 36.0636 55.4151 35.2322 55.3425 34.1359L53.5393 6.92864Z"
        fill="#FEC830" />
      <path
        d="M3.77275 34.2611C2.66105 34.3247 1.71244 33.4749 1.65592 32.3622C1.29254 25.2083 0.352196 10.7616 0.00438552 5.47613C-0.0683729 4.37045 0.772924 3.42738 1.87838 3.36173L44.8003 0.812516C45.4586 0.773416 46.0937 1.06241 46.497 1.58457L56.6491 14.7301C57.1555 15.3858 57.2043 16.2865 56.7718 16.9932L48.2861 30.8566C47.9446 31.4145 47.3516 31.7695 46.6988 31.8069L3.77275 34.2611Z"
        fill="black" />
      <path
        d="M10.9688 18.565C10.8958 17.5808 11.0267 16.5922 11.3533 15.66C11.6625 14.7645 12.1496 13.9394 12.7858 13.2334C13.4415 12.5191 14.2326 11.9394 15.1141 11.5274C16.0574 11.0791 17.0795 10.8163 18.1239 10.7534C19.3236 10.6734 20.3962 10.7779 21.3417 11.067C22.3086 11.3662 23.2145 11.8324 24.0175 12.4441L21.8954 15.3444C21.3885 14.9677 20.8248 14.6725 20.2251 14.4697C19.6295 14.2858 19.0035 14.2178 18.3818 14.2696C17.8948 14.2936 17.4186 14.4208 16.9854 14.6426C16.5521 14.8644 16.1719 15.1756 15.8704 15.5552C15.2202 16.3443 14.932 17.2784 15.0056 18.3575C15.0838 19.5064 15.5103 20.4302 16.2852 21.129C17.0602 21.8278 18.0094 22.1391 19.1327 22.0631C20.0505 22.0008 20.7965 21.7468 21.3707 21.3011L21.2502 19.5337L18.4256 19.7232L18.2336 16.903L24.7758 16.4653L25.2096 22.8243C23.5285 24.3811 21.5256 25.2365 19.2008 25.3904C17.7402 25.4887 16.4006 25.2663 15.1821 24.7232C13.9893 24.2031 12.9678 23.3619 12.2336 22.2953C11.4865 21.2189 11.0649 19.9754 10.9688 18.565Z"
        fill="white" />
      <path
        d="M28.3991 17.4194C28.3288 16.4413 28.4634 15.4593 28.7945 14.5351C29.11 13.6363 29.5998 12.8072 30.2364 12.0945C30.8929 11.3741 31.6851 10.7877 32.5687 10.3685C34.4662 9.46657 36.6405 9.31948 38.6442 9.95749C39.5704 10.2523 40.429 10.7247 41.1711 11.3479C41.8928 11.9678 42.4832 12.7235 42.908 13.571C43.3566 14.4512 43.6199 15.4125 43.6818 16.3966C43.7515 17.3749 43.6171 18.3569 43.2871 19.2815C42.9741 20.1811 42.4858 21.011 41.8499 21.7241C41.1956 22.4434 40.4053 23.0287 39.5237 23.4468C38.5869 23.9003 37.5689 24.1661 36.5281 24.2288C35.0945 24.3249 33.7699 24.0867 32.5545 23.5142C31.373 22.9686 30.3632 22.1154 29.633 21.0456C28.8993 19.9691 28.473 18.7162 28.3991 17.4194ZM32.4333 17.1492C32.5038 18.1913 32.9079 19.0632 33.6456 19.7646C34.3833 20.466 35.2776 20.7814 36.3287 20.7107C37.3928 20.64 38.2367 20.2132 38.8603 19.4303C39.484 18.6475 39.7597 17.7254 39.6874 16.6641C39.6164 15.622 39.2124 14.7502 38.4751 14.0487C37.7379 13.3473 36.8359 13.0321 35.7691 13.1033C34.7184 13.1736 33.8813 13.6002 33.2576 14.383C32.634 15.1658 32.3592 16.0879 32.4333 17.1492Z"
        fill="white" />
      <path d="M65.9088 27.2193L64.9484 13.1414L68.8836 12.8785L69.8474 26.9564L65.9088 27.2193Z"
        fill="white" />
      <path
        d="M71.1443 16.1687L70.9106 12.7414L83.3801 11.9074L83.6139 15.3341L79.3433 15.6183L80.07 26.2728L76.1348 26.5356L75.4081 15.8812L71.1443 16.1687Z"
        fill="white" />
      <path
        d="M83.3499 20.5981C83.2938 19.8365 83.382 19.0711 83.6099 18.3416C83.8196 17.6534 84.1628 17.0123 84.6201 16.4541C85.082 15.9033 85.6529 15.4521 86.2978 15.1284C86.983 14.7807 87.7335 14.5776 88.502 14.532C89.4207 14.4706 90.2513 14.5747 90.9939 14.8442C91.694 15.0873 92.3233 15.4964 92.8271 16.0358C93.3141 16.5703 93.6987 17.1882 93.9619 17.8593C94.2458 18.5841 94.4137 19.3483 94.4596 20.1244C94.4839 20.4713 94.4947 20.7335 94.494 20.911L87.1389 21.4027C87.3315 21.9885 87.6458 22.4231 88.0818 22.7064C88.5178 22.9898 89.0388 23.111 89.6449 23.0701C90.4998 23.0109 91.2864 22.5788 92.0048 21.7737L94.2562 23.395C93.1859 24.9322 91.6429 25.7682 89.6274 25.903C88.4843 25.9799 87.4516 25.8124 86.5294 25.4006C85.6232 25.004 84.8516 24.357 84.307 23.5371C83.7453 22.7044 83.4263 21.7248 83.3499 20.5981ZM86.9463 19.4505L90.7622 19.195C90.6478 18.5909 90.4102 18.1239 90.0497 17.7939C89.6892 17.4638 89.2476 17.3159 88.725 17.3502C88.4893 17.3617 88.2588 17.4228 88.0489 17.5295C87.8389 17.6361 87.6543 17.7858 87.5073 17.9687C87.1917 18.3476 87.0047 18.8416 86.9463 19.4505Z"
        fill="white" />
      <path
        d="M95.8343 19.7631C95.7782 19.0013 95.8661 18.2358 96.0936 17.506C96.3036 16.8179 96.6467 16.1768 97.1038 15.6185C97.5657 15.068 98.1364 14.6169 98.7807 14.2928C99.4661 13.945 100.217 13.7421 100.986 13.697C101.904 13.6356 102.735 13.7395 103.478 14.0086C104.178 14.2508 104.807 14.6592 105.311 15.1982C105.799 15.7323 106.183 16.35 106.446 17.021C106.73 17.7469 106.898 18.5123 106.944 19.2894C106.968 19.6364 106.979 19.8986 106.978 20.076L99.6233 20.5684C99.8159 21.1538 100.13 21.5881 100.566 21.8715C101.002 22.1548 101.523 22.2762 102.129 22.2358C102.988 22.1775 103.775 21.7449 104.491 20.9381L106.742 22.5593C105.671 24.0966 104.128 24.9326 102.113 25.0673C100.97 25.1443 99.9369 24.9768 99.0151 24.5649C98.1089 24.1682 97.3373 23.5213 96.7926 22.7015C96.2305 21.8688 95.911 20.8893 95.8343 19.7631ZM99.4307 18.6149L103.247 18.3593C103.132 17.7558 102.894 17.2887 102.533 16.9582C102.172 16.6278 101.731 16.4799 101.209 16.5145C100.973 16.5261 100.743 16.5873 100.533 16.694C100.323 16.8008 100.138 16.9507 99.9917 17.1337C99.6751 17.5136 99.4881 18.0073 99.4307 18.6149Z"
        fill="white" />
      <path
        d="M109.135 24.3279L108.394 13.448L112.25 13.1898L112.355 14.731C113.215 13.4767 114.27 12.8077 115.52 12.7241C116.683 12.6458 117.621 12.9413 118.334 13.6108C119.047 14.2802 119.446 15.2365 119.531 16.4797L120.016 23.5994L116.16 23.8569L115.756 17.9802C115.716 17.3989 115.545 16.9594 115.241 16.6618C114.938 16.3643 114.551 16.2308 114.081 16.2615C113.597 16.2944 113.216 16.4806 112.94 16.82C112.664 17.1594 112.545 17.6166 112.584 18.1917L112.985 24.0684L109.135 24.3279Z"
        fill="white" />
      <path
        d="M121.275 22.0976L122.564 19.687C123.888 20.4102 125.175 20.73 126.424 20.6464C127.071 20.6019 127.381 20.3795 127.354 19.9792C127.341 19.7884 127.198 19.6396 126.926 19.5329C126.653 19.4261 126.185 19.312 125.528 19.1899C125.03 19.0956 124.605 19.0027 124.254 18.911C123.883 18.8124 123.521 18.6828 123.172 18.5234C122.845 18.3829 122.541 18.1927 122.272 17.9596C122.027 17.7308 121.828 17.458 121.685 17.1557C121.517 16.8037 121.42 16.4224 121.4 16.0334C121.321 14.8814 121.666 13.9567 122.435 13.2592C123.204 12.5618 124.243 12.1695 125.551 12.0823C126.364 12.0285 127.18 12.0905 127.976 12.2664C128.745 12.4293 129.486 12.7062 130.172 13.0878L129.019 15.6004C128.449 15.3457 127.855 15.1462 127.246 15.0046C126.652 14.8685 126.137 14.8151 125.702 14.8445C125.411 14.8636 125.193 14.9261 125.047 15.032C124.979 15.0768 124.924 15.1391 124.888 15.2123C124.853 15.2854 124.838 15.3667 124.845 15.4476C124.858 15.6393 124.999 15.7881 125.269 15.894C125.538 15.9998 126.013 16.1264 126.694 16.2736C127.192 16.3741 127.617 16.4736 127.969 16.5719C128.339 16.6778 128.701 16.8116 129.051 16.9722C129.379 17.1123 129.682 17.3023 129.951 17.5353C130.194 17.7606 130.393 18.0284 130.537 18.3253C130.705 18.6657 130.801 19.036 130.821 19.4141C130.902 20.6026 130.561 21.5425 129.799 22.2337C129.036 22.9249 127.967 23.3165 126.592 23.4086C124.629 23.5389 122.857 23.1019 121.275 22.0976Z"
        fill="white" />
    </symbol>

    <symbol id="hamburger" viewBox="0 0 44 44">
      <path fill-rule="evenodd" clip-rule="evenodd"
        d="M39 15.5C39 16.3284 38.3284 17 37.5 17L6.5 17C5.67157 17 5 16.3284 5 15.5C5 14.6716 5.67157 14 6.5 14L37.5 14C38.3284 14 39 14.6716 39 15.5Z"
        fill="#474747" />
      <path fill-rule="evenodd" clip-rule="evenodd"
        d="M39 23.5C39 24.3284 38.3284 25 37.5 25L6.5 25C5.67157 25 5 24.3284 5 23.5C5 22.6716 5.67157 22 6.5 22L37.5 22C38.3284 22 39 22.6716 39 23.5Z"
        fill="#474747" />
      <path fill-rule="evenodd" clip-rule="evenodd"
        d="M39 31.5C39 32.3284 38.3284 33 37.5 33L6.5 33C5.67157 33 5 32.3284 5 31.5C5 30.6716 5.67157 30 6.5 30L37.5 30C38.3284 30 39 30.6716 39 31.5Z"
        fill="#474747" />
    </symbol>


    <symbol id="close" viewBox="0 0 24 24">
      <path fill-rule="evenodd" clip-rule="evenodd"
        d="M18.8841 5.29306C19.2746 5.68359 19.2746 6.31675 18.8841 6.70728L6.70728 18.8841C6.31675 19.2746 5.68359 19.2746 5.29306 18.8841L5.11629 18.7073C4.72576 18.3168 4.72576 17.6836 5.11629 17.2931L17.2931 5.11629C17.6836 4.72576 18.3168 4.72576 18.7073 5.11629L18.8841 5.29306Z"
        fill="#999999" />
      <path fill-rule="evenodd" clip-rule="evenodd"
        d="M5.29306 5.11629C5.68359 4.72576 6.31675 4.72576 6.70728 5.11629L18.8841 17.2931C19.2746 17.6836 19.2746 18.3168 18.8841 18.7073L18.7073 18.8841C18.3168 19.2746 17.6836 19.2746 17.2931 18.8841L5.11629 6.70728C4.72576 6.31675 4.72576 5.68359 5.11629 5.29306L5.29306 5.11629Z"
        fill="#999999" />
    </symbol>

    <symbol id="photoshop" viewBox="0 0 32 32">
      <path
        d="M5.66667 2.57925e-06H26.3333C27.0777 -0.000716969 27.8149 0.149123 28.5027 0.440947C29.1905 0.73277 29.8155 1.16085 30.3418 1.70068C30.8682 2.24052 31.2856 2.88151 31.5701 3.58697C31.8546 4.29244 32.0007 5.04853 32 5.81197V26.188C32.0007 26.9515 31.8546 27.7076 31.5701 28.413C31.2856 29.1185 30.8682 29.7595 30.3418 30.2993C29.8155 30.8392 29.1905 31.2672 28.5027 31.5591C27.8149 31.8509 27.0777 32.0007 26.3333 32H5.66667C4.92231 32.0007 4.18513 31.8509 3.4973 31.5591C2.80947 31.2672 2.1845 30.8392 1.65817 30.2993C1.13183 29.7595 0.714451 29.1185 0.429923 28.413C0.145395 27.7076 -0.000699045 26.9515 2.51477e-06 26.188V5.81197C-0.000699045 5.04853 0.145395 4.29244 0.429923 3.58697C0.714451 2.88151 1.13183 2.24052 1.65817 1.70068C2.1845 1.16085 2.80947 0.73277 3.4973 0.440947C4.18513 0.149123 4.92231 -0.000716969 5.66667 2.57925e-06Z"
        fill="#001E36" />
      <path
        d="M7.19995 22.441V8.3692C7.19995 8.27347 7.23995 8.21877 7.33328 8.21877C7.55995 8.21877 7.77328 8.21877 8.07995 8.20509C8.38662 8.19142 8.73328 8.19142 9.09328 8.17774C9.45328 8.16407 9.83995 8.16407 10.2533 8.15039C10.6666 8.13672 11.0666 8.13672 11.4666 8.13672C12.56 8.13672 13.4666 8.27347 14.2133 8.56065C14.8826 8.79378 15.4929 9.17684 16 9.68202C16.4296 10.1241 16.7615 10.6558 16.9733 11.241C17.1751 11.8109 17.2789 12.4124 17.28 13.0188C17.28 14.1948 17.0133 15.1658 16.48 15.9316C15.9441 16.6964 15.1961 17.2778 14.3333 17.6C13.4266 17.9418 12.4266 18.0649 11.3333 18.0649C11.0133 18.0649 10.8 18.0649 10.6666 18.0512C10.5333 18.0376 10.3466 18.0376 10.0933 18.0376V22.4273C10.0963 22.4498 10.0948 22.4727 10.089 22.4946C10.0832 22.5165 10.0731 22.537 10.0595 22.5549C10.0458 22.5727 10.0287 22.5876 10.0094 22.5986C9.98997 22.6095 9.96864 22.6164 9.94662 22.6188H7.35995C7.25328 22.6188 7.19995 22.5641 7.19995 22.441ZM10.1066 10.8581V15.453C10.2933 15.4666 10.4666 15.4803 10.6266 15.4803H11.3333C11.8538 15.4809 12.3712 15.3979 12.8666 15.2342C13.2917 15.106 13.6714 14.8542 13.96 14.5094C14.24 14.1675 14.3733 13.7025 14.3733 13.1008C14.3858 12.6735 14.2795 12.2513 14.0666 11.8837C13.8443 11.5287 13.5173 11.2556 13.1333 11.1042C12.6327 10.9032 12.0971 10.8101 11.56 10.8307C11.2133 10.8307 10.9066 10.8307 10.6533 10.8444C10.471 10.8322 10.2881 10.8368 10.1066 10.8581Z"
        fill="#31A8FF" />
      <path
        d="M25.6001 14.6189C25.1975 14.4014 24.7663 14.2448 24.3201 14.154C23.8299 14.0401 23.3293 13.9805 22.8267 13.9762C22.5569 13.9666 22.2872 13.9989 22.0267 14.0719C21.8606 14.1074 21.7133 14.2048 21.6134 14.3454C21.546 14.4564 21.5092 14.584 21.5067 14.7146C21.5129 14.8447 21.5597 14.9694 21.6401 15.0702C21.7664 15.2222 21.9204 15.3476 22.0934 15.4394C22.4001 15.6035 22.7201 15.754 23.0401 15.8907C23.7604 16.1394 24.4496 16.4745 25.0934 16.889C25.5313 17.1714 25.8933 17.5616 26.1467 18.024C26.361 18.4603 26.4663 18.9443 26.4534 19.4326C26.4642 20.079 26.2828 20.7134 25.9334 21.2514C25.5615 21.7973 25.0426 22.2202 24.4401 22.4685C23.7867 22.7557 22.9867 22.9061 22.0267 22.9061C21.418 22.9086 20.8106 22.8491 20.2134 22.7283C19.7431 22.645 19.2858 22.4978 18.8534 22.2907C18.8069 22.2668 18.7682 22.2295 18.7422 22.1833C18.7161 22.1371 18.7038 22.0841 18.7067 22.0309V19.6514C18.7056 19.628 18.7098 19.6047 18.7191 19.5833C18.7283 19.5619 18.7424 19.5431 18.7601 19.5283C18.7788 19.5171 18.8006 19.5124 18.8223 19.5148C18.8439 19.5173 18.8641 19.5268 18.8801 19.542C19.3937 19.8525 19.9515 20.0787 20.5334 20.2121C21.0471 20.3492 21.5759 20.4181 22.1067 20.4172C22.6134 20.4172 22.9734 20.3488 23.2134 20.2258C23.3204 20.175 23.4112 20.0941 23.4749 19.9923C23.5387 19.8906 23.5728 19.7723 23.5734 19.6514C23.5734 19.4599 23.4667 19.2822 23.2534 19.1044C23.0401 18.9266 22.6001 18.7215 21.9467 18.4617C21.2765 18.2194 20.64 17.8884 20.0534 17.477C19.6356 17.1716 19.2894 16.7745 19.0401 16.3146C18.8273 15.8827 18.7219 15.4036 18.7334 14.9198C18.7354 14.3362 18.8921 13.7642 19.1867 13.2651C19.5254 12.7161 20.0116 12.2792 20.5867 12.007C21.2134 11.6787 22.0001 11.5283 22.9467 11.5283C23.5 11.5285 24.0525 11.5696 24.6001 11.6514C24.9937 11.706 25.379 11.8117 25.7467 11.9659C25.8053 11.9872 25.8533 12.0315 25.8801 12.089C25.8954 12.1424 25.9044 12.1975 25.9067 12.2531V14.4822C25.9069 14.5087 25.901 14.535 25.8894 14.5588C25.8778 14.5825 25.8609 14.6031 25.8401 14.6189C25.7625 14.6475 25.6776 14.6475 25.6001 14.6189Z"
        fill="#31A8FF" />

    </symbol>

    <symbol id="lightroom" viewBox="0 0 32 32">
      <path
        d="M5.66667 2.57925e-06H26.3333C27.0777 -0.000716969 27.8149 0.149123 28.5027 0.440947C29.1905 0.73277 29.8155 1.16085 30.3418 1.70068C30.8682 2.24052 31.2856 2.88151 31.5701 3.58697C31.8546 4.29244 32.0007 5.04853 32 5.81197V26.188C32.0007 26.9515 31.8546 27.7076 31.5701 28.413C31.2856 29.1185 30.8682 29.7595 30.3418 30.2993C29.8155 30.8392 29.1905 31.2672 28.5027 31.5591C27.8149 31.8509 27.0777 32.0007 26.3333 32H5.66667C4.92231 32.0007 4.18513 31.8509 3.4973 31.5591C2.80947 31.2672 2.1845 30.8392 1.65817 30.2993C1.13183 29.7595 0.714451 29.1185 0.429923 28.413C0.145395 27.7076 -0.000699045 26.9515 2.51477e-06 26.188V5.81197C-0.000699045 5.04853 0.145395 4.29244 0.429923 3.58697C0.714451 2.88151 1.13183 2.24052 1.65817 1.70068C2.1845 1.16085 2.80947 0.73277 3.4973 0.440947C4.18513 0.149123 4.92231 -0.000716969 5.66667 2.57925e-06Z"
        fill="#001E36" />
      <path
        d="M16.8 22.6189H8.34667C8.2 22.6189 8.13334 22.5368 8.13334 22.3727V8.39666C8.13036 8.37415 8.13182 8.35127 8.13763 8.32935C8.14344 8.30744 8.15349 8.28695 8.16716 8.26909C8.18084 8.25124 8.19788 8.23638 8.21726 8.22541C8.23665 8.21443 8.25798 8.20756 8.28 8.2052H10.9467C10.9633 8.20209 10.9805 8.20248 10.997 8.20635C11.0135 8.21022 11.0291 8.21748 11.0428 8.22771C11.0565 8.23794 11.0681 8.25091 11.0768 8.26585C11.0854 8.28078 11.0911 8.29737 11.0933 8.3146V19.8428H17.2533C17.3867 19.8428 17.4267 19.9112 17.4 20.0343L17.0133 22.4137C17.0113 22.4452 17.0031 22.4759 16.9894 22.504C16.9756 22.5322 16.9566 22.5573 16.9333 22.5779C16.8942 22.6056 16.8476 22.62 16.8 22.6189Z"
        fill="#31A8FF" />
      <path
        d="M18.9333 11.6788H21.2667C21.3299 11.6804 21.391 11.7024 21.4412 11.7417C21.4915 11.781 21.5284 11.8356 21.5467 11.8976C21.6018 11.9944 21.638 12.1012 21.6533 12.2122C21.68 12.3489 21.7067 12.4994 21.72 12.6361C21.7333 12.7729 21.7467 12.9506 21.7467 13.1284C22.147 12.6491 22.6308 12.2502 23.1733 11.9523C23.7825 11.6137 24.4673 11.444 25.16 11.46C25.1819 11.457 25.2043 11.4585 25.2256 11.4644C25.247 11.4704 25.267 11.4807 25.2844 11.4947C25.3018 11.5088 25.3163 11.5262 25.327 11.5461C25.3377 11.566 25.3444 11.5879 25.3467 11.6105V14.3318C25.3467 14.4412 25.28 14.4823 25.1333 14.4823C24.2692 14.4292 23.4052 14.5886 22.6133 14.9472C22.3433 15.0657 22.0986 15.2377 21.8933 15.4532V22.4276C21.8933 22.5643 21.84 22.619 21.72 22.619H19.12C19.0954 22.6233 19.0702 22.6223 19.046 22.6163C19.0218 22.6103 18.999 22.5992 18.979 22.5839C18.9591 22.5685 18.9424 22.5492 18.9299 22.527C18.9175 22.5048 18.9096 22.4803 18.9067 22.4549V14.8241C18.9067 14.4959 18.9067 14.1541 18.8933 13.7985C18.88 13.4429 18.88 13.0874 18.8667 12.7318C18.8533 12.431 18.8267 12.1301 18.7867 11.8293C18.7831 11.8131 18.7827 11.7964 18.7855 11.7801C18.7883 11.7637 18.7942 11.7481 18.8029 11.7342C18.8115 11.7202 18.8228 11.7081 18.8361 11.6986C18.8493 11.6891 18.8642 11.6824 18.88 11.6788C18.8933 11.6652 18.9067 11.6652 18.9333 11.6788Z"
        fill="#31A8FF" />

    </symbol>

    <symbol id="illustrator" viewBox="0 0 32 32">
      <path
        d="M5.66667 2.57925e-06H26.3333C27.0777 -0.000716969 27.8149 0.149123 28.5027 0.440947C29.1905 0.73277 29.8155 1.16085 30.3418 1.70068C30.8682 2.24052 31.2856 2.88151 31.5701 3.58697C31.8546 4.29244 32.0007 5.04853 32 5.81197V26.188C32.0007 26.9515 31.8546 27.7076 31.5701 28.413C31.2856 29.1185 30.8682 29.7595 30.3418 30.2993C29.8155 30.8392 29.1905 31.2672 28.5027 31.5591C27.8149 31.8509 27.0777 32.0007 26.3333 32H5.66667C4.92231 32.0007 4.18513 31.8509 3.4973 31.5591C2.80947 31.2672 2.1845 30.8392 1.65817 30.2993C1.13183 29.7595 0.714451 29.1185 0.429923 28.413C0.145395 27.7076 -0.000699045 26.9515 2.51477e-06 26.188V5.81197C-0.000699045 5.04853 0.145395 4.29244 0.429923 3.58697C0.714451 2.88151 1.13183 2.24052 1.65817 1.70068C2.1845 1.16085 2.80947 0.73277 3.4973 0.440947C4.18513 0.149123 4.92231 -0.000716969 5.66667 2.57925e-06Z"
        fill="#330000" />
      <path
        d="M15.5064 19.2H10.5464L9.53309 22.4136C9.52177 22.4722 9.4895 22.5243 9.44263 22.5597C9.39575 22.5952 9.33766 22.6113 9.27976 22.6051H6.77309C6.62642 22.6051 6.58642 22.523 6.62642 22.3589L10.9198 9.682C10.9598 9.54525 10.9998 9.39482 11.0531 9.23072C11.1068 8.93764 11.1335 8.64004 11.1331 8.34183C11.1291 8.30758 11.1379 8.27305 11.1576 8.24516C11.1774 8.21726 11.2068 8.19806 11.2398 8.19141H14.6931C14.7998 8.19141 14.8531 8.23243 14.8664 8.30081L19.7331 22.3863C19.7731 22.5367 19.7331 22.6051 19.5998 22.6051H16.8131C16.766 22.6097 16.7187 22.5972 16.6797 22.5697C16.6407 22.5422 16.6124 22.5015 16.5998 22.4547L15.5064 19.2ZM11.3198 16.4239H14.7064C14.6264 16.1367 14.5198 15.7948 14.3998 15.4393C14.2798 15.0837 14.1598 14.6735 14.0398 14.2632C13.9198 13.8529 13.7864 13.429 13.6531 13.0051C13.5198 12.5811 13.3998 12.1846 13.2931 11.788C13.1864 11.3914 13.0931 11.0495 12.9998 10.7213H12.9731C12.8533 11.3173 12.7019 11.9063 12.5198 12.4854C12.3198 13.1418 12.1198 13.8256 11.9064 14.5094C11.7198 15.2068 11.5198 15.8495 11.3198 16.4239Z"
        fill="#FF9A00" />
      <path
        d="M22.6395 10.5297C22.4207 10.5346 22.203 10.4948 21.9993 10.4127C21.7956 10.3305 21.6098 10.2076 21.4529 10.0511C21.1474 9.70849 20.9847 9.25694 20.9995 8.79295C20.9917 8.56687 21.0303 8.34164 21.113 8.13192C21.1958 7.92221 21.3206 7.73274 21.4795 7.57585C21.8 7.26517 22.2252 7.09367 22.6662 7.09722C23.1862 7.09722 23.5862 7.26132 23.8795 7.57585C24.1749 7.90744 24.3327 8.34401 24.3195 8.79295C24.3277 9.024 24.2906 9.25438 24.2104 9.47047C24.1303 9.68656 24.0087 9.88399 23.8529 10.0511C23.6958 10.2152 23.5062 10.3429 23.2968 10.4254C23.0875 10.508 22.8634 10.5436 22.6395 10.5297ZM21.1462 22.3998V11.8699C21.1462 11.7331 21.1995 11.6784 21.3195 11.6784H23.9595C24.0795 11.6784 24.1329 11.7468 24.1329 11.8699V22.3998C24.1329 22.5502 24.0795 22.6186 23.9595 22.6186H21.3462C21.3182 22.621 21.29 22.6168 21.2638 22.6064C21.2375 22.5961 21.2139 22.5798 21.1947 22.5587C21.1755 22.5377 21.1611 22.5125 21.1527 22.4849C21.1443 22.4574 21.1421 22.4283 21.1462 22.3998Z"
        fill="#FF9A00" />

    </symbol>

    <symbol id="effect" viewBox="0 0 32 32">
      <path
        d="M5.66667 2.57925e-06H26.3333C27.0777 -0.000716969 27.8149 0.149123 28.5027 0.440947C29.1905 0.73277 29.8155 1.16085 30.3418 1.70068C30.8682 2.24052 31.2856 2.88151 31.5701 3.58697C31.8546 4.29244 32.0007 5.04853 32 5.81197V26.188C32.0007 26.9515 31.8546 27.7076 31.5701 28.413C31.2856 29.1185 30.8682 29.7595 30.3418 30.2993C29.8155 30.8392 29.1905 31.2672 28.5027 31.5591C27.8149 31.8509 27.0777 32.0007 26.3333 32H5.66667C4.92231 32.0007 4.18513 31.8509 3.4973 31.5591C2.80947 31.2672 2.1845 30.8392 1.65817 30.2993C1.13183 29.7595 0.714451 29.1185 0.429923 28.413C0.145395 27.7076 -0.000699045 26.9515 2.51477e-06 26.188V5.81197C-0.000699045 5.04853 0.145395 4.29244 0.429923 3.58697C0.714451 2.88151 1.13183 2.24052 1.65817 1.70068C2.1845 1.16085 2.80947 0.73277 3.4973 0.440947C4.18513 0.149123 4.92231 -0.000716969 5.66667 2.57925e-06Z"
        fill="#00005B" />
      <path
        d="M12.8531 19.1452H7.8931L6.87977 22.3726C6.86845 22.4312 6.83618 22.4833 6.78931 22.5187C6.74243 22.5541 6.68434 22.5703 6.62644 22.564H4.11977C3.9731 22.564 3.9331 22.482 3.9731 22.3179L8.26644 9.69567C8.30644 9.55892 8.34644 9.43584 8.39977 9.27174C8.45343 8.97865 8.48021 8.68106 8.47977 8.38285C8.47577 8.3486 8.48455 8.31407 8.50433 8.28617C8.52411 8.25828 8.55344 8.23908 8.58644 8.23242H12.0398C12.1331 8.23242 12.1998 8.27345 12.2131 8.34182L17.0798 22.3589C17.1198 22.5093 17.0798 22.5777 16.9464 22.5777H14.1598C14.1126 22.5824 14.0654 22.5698 14.0264 22.5423C13.9874 22.5148 13.9591 22.4741 13.9464 22.4273L12.8531 19.1452ZM8.66644 16.4239H12.0531C11.9731 16.1367 11.8664 15.7948 11.7464 15.4393C11.6264 15.0837 11.5064 14.6734 11.3864 14.2632C11.2664 13.8529 11.1331 13.429 10.9998 13.0051C10.8664 12.5811 10.7464 12.1846 10.6398 11.788C10.5331 11.3914 10.4398 11.0495 10.3464 10.7213H10.3198C10.1999 11.3173 10.0486 11.9062 9.86644 12.4854C9.66644 13.1418 9.46644 13.8256 9.2531 14.5093C9.07977 15.2068 8.86644 15.8495 8.66644 16.4239Z"
        fill="#9999FF" />
      <path
        d="M24.9866 17.8872H20.7599C20.8103 18.3187 20.9514 18.7339 21.1732 19.1043C21.4089 19.4728 21.7484 19.7591 22.1466 19.9248C22.6855 20.1612 23.2672 20.2777 23.8532 20.2667C24.3188 20.2579 24.7828 20.2076 25.2399 20.1162C25.6465 20.0616 26.0451 19.956 26.4266 19.8017C26.4932 19.747 26.5332 19.7743 26.5332 19.9111V22.0034C26.5309 22.059 26.5219 22.1141 26.5066 22.1675C26.4825 22.2059 26.4506 22.2385 26.4132 22.2632C25.9868 22.4553 25.539 22.5931 25.0799 22.6735C24.4562 22.7965 23.8216 22.8515 23.1866 22.8376C22.1732 22.8376 21.3199 22.6735 20.6266 22.359C19.9741 22.0685 19.3983 21.6232 18.9466 21.0598C18.5244 20.533 18.2114 19.9234 18.0266 19.2684C17.6359 17.9041 17.6544 16.4507 18.0799 15.0974C18.2925 14.4127 18.6321 13.7766 19.0799 13.2239C19.5208 12.6774 20.071 12.2344 20.6932 11.9248C21.3199 11.6102 22.0666 11.5008 22.9199 11.5008C23.6309 11.4839 24.3366 11.6287 24.9866 11.9248C25.5328 12.1676 26.0133 12.5431 26.3866 13.0188C26.741 13.4859 27.0118 14.0137 27.1866 14.5778C27.3561 15.1167 27.4416 15.6798 27.4399 16.2461C27.4399 16.5743 27.4266 16.8615 27.4132 17.1214C27.3999 17.3812 27.3732 17.5726 27.3599 17.6957C27.354 17.7431 27.3321 17.7868 27.298 17.8193C27.2639 17.8518 27.2197 17.871 27.1732 17.8735C27.0932 17.8735 26.9466 17.8872 26.7332 17.9008C26.4765 17.9307 26.2183 17.9444 25.9599 17.9419C25.6532 17.9419 25.3332 17.8872 24.9866 17.8872ZM20.7599 15.8906H23.5732C23.9199 15.8906 24.1732 15.8906 24.3332 15.8769C24.4428 15.8675 24.5483 15.8299 24.6399 15.7675V15.6308C24.6404 15.4587 24.6134 15.2878 24.5599 15.1248C24.4432 14.7506 24.211 14.4255 23.8983 14.1985C23.5856 13.9716 23.2095 13.8551 22.8266 13.8667C22.4647 13.8458 22.1047 13.9329 21.79 14.1173C21.4754 14.3018 21.2195 14.5757 21.0532 14.906C20.8977 15.2131 20.7983 15.5468 20.7599 15.8906Z"
        fill="#9999FF" />

    </symbol>

    <symbol id="figma" viewBox="0 0 90 90">
      <path
        d="M45 45.5C45 42.9804 46.0009 40.5641 47.7825 38.7825C49.5641 37.0009 51.9804 36 54.5 36C57.0196 36 59.4359 37.0009 61.2175 38.7825C62.9991 40.5641 64 42.9804 64 45.5C64 48.0196 62.9991 50.4359 61.2175 52.2175C59.4359 53.9991 57.0196 55 54.5 55C51.9804 55 49.5641 53.9991 47.7825 52.2175C46.0009 50.4359 45 48.0196 45 45.5Z"
        fill="#1ABCFE" />
      <path
        d="M26 64.5C26 61.9804 27.0009 59.5641 28.7825 57.7825C30.5641 56.0009 32.9804 55 35.5 55H45V64.5C45 67.0196 43.9991 69.4359 42.2175 71.2175C40.4359 72.9991 38.0196 74 35.5 74C32.9804 74 30.5641 72.9991 28.7825 71.2175C27.0009 69.4359 26 67.0196 26 64.5V64.5Z"
        fill="#0ACF83" />
      <path
        d="M45 17V36H54.5C57.0196 36 59.4359 34.9991 61.2175 33.2175C62.9991 31.4359 64 29.0196 64 26.5C64 23.9804 62.9991 21.5641 61.2175 19.7825C59.4359 18.0009 57.0196 17 54.5 17H45Z"
        fill="#FF7262" />
      <path
        d="M26 26.5C26 29.0196 27.0009 31.4359 28.7825 33.2175C30.5641 34.9991 32.9804 36 35.5 36H45V17H35.5C32.9804 17 30.5641 18.0009 28.7825 19.7825C27.0009 21.5641 26 23.9804 26 26.5V26.5Z"
        fill="#F24E1E" />
      <path
        d="M26 45.5C26 48.0196 27.0009 50.4359 28.7825 52.2175C30.5641 53.9991 32.9804 55 35.5 55H45V36H35.5C32.9804 36 30.5641 37.0009 28.7825 38.7825C27.0009 40.5641 26 42.9804 26 45.5V45.5Z"
        fill="#A259FF" />

    </symbol>

    <symbol id="arrow" viewBox="0 0 18 12">
      <path d="M9 12L0.339747 -2.76018e-07L17.6603 -1.79022e-06L9 12Z" fill="#653CD9" />

    </symbol>

    <symbol id="goiteens">
      <path d="M175.604 0L67 6.62584L69.396 46L178 39.3741L175.604 0Z" fill="#FEC830" />
      <path d="M82 17.2257L85.9145 17L87 33.7743L83.0855 34L82 17.2257Z" fill="white" />
      <path
        d="M95.273 19.8704L90.2061 20.1766L90 16.834L103.795 16L104 19.3426L98.9338 19.6489L99.7428 32.7785L96.0821 33L95.2658 19.877L95.273 19.8704Z"
        fill="white" />
      <path
        d="M105.013 25.883C104.804 22.3197 107.103 19.2398 110.651 19.0142C114.717 18.763 116.77 21.8751 116.985 25.419C117.004 25.7025 117.004 26.0247 116.991 26.3534L108.522 26.8882C108.959 28.4668 110.1 29.2465 111.645 29.1434C112.811 29.0661 113.622 28.6408 114.521 27.6807L116.605 29.3431C115.559 30.8573 113.97 31.8432 111.766 31.9849C108.104 32.2169 105.247 29.7555 105.019 25.8894L105.013 25.883ZM113.539 24.3494C113.241 22.7772 112.272 21.7656 110.815 21.8622C109.384 21.9524 108.516 23.0543 108.332 24.678L113.533 24.3559L113.539 24.3494Z"
        fill="white" />
      <path
        d="M121.013 24.883C120.804 21.3198 123.103 18.2398 126.651 18.0142C130.717 17.763 132.77 20.8752 132.985 24.419C133.004 24.7025 133.004 25.0247 132.991 25.3533L124.522 25.8881C124.959 27.4668 126.1 28.2464 127.645 28.1433C128.811 28.066 129.622 27.6407 130.521 26.6807L132.605 28.3431C131.553 29.8573 129.97 30.8432 127.766 30.9849C124.104 31.2169 121.247 28.7555 121.019 24.8894L121.013 24.883ZM129.539 23.3494C129.235 21.7772 128.272 20.7656 126.815 20.8623C125.384 20.9525 124.516 22.0543 124.338 23.6781L129.539 23.3559V23.3494Z"
        fill="white" />
      <path
        d="M137 17.6795L140.485 17.4632L140.594 19.2069C141.328 18.1186 142.304 17.1195 144.066 17.0113C146.695 16.8458 148.342 18.5005 148.515 21.326L149 29.3L145.514 29.5164L145.1 22.6433C145.004 20.9888 144.168 20.1869 142.84 20.2697C141.513 20.3524 140.722 21.256 140.817 22.9107L141.232 29.7837L137.747 30L137 17.6859V17.6795Z"
        fill="white" />
      <path
        d="M153 28.4125L154.374 25.9707C155.779 26.8798 157.224 27.302 158.391 27.2306C159.414 27.1656 159.854 26.763 159.822 26.159C159.77 25.3862 158.552 25.2044 157.153 24.8666C155.384 24.4575 153.35 23.7561 153.201 21.2753C153.045 18.7165 155.009 17.1643 157.516 17.015C159.097 16.9111 160.852 17.3526 162.258 18.1839L161.059 20.7232C159.79 20.0673 158.52 19.6972 157.619 19.7556C156.764 19.8075 156.336 20.2102 156.369 20.7557C156.408 21.4636 157.619 21.7104 158.999 22.1C160.781 22.5806 162.848 23.3015 162.99 25.6395C163.158 28.432 161.169 29.8283 158.474 29.9842C156.719 30.0946 154.73 29.6335 153 28.4125Z"
        fill="white" />
      <path
        d="M70.5204 18.2974L57.2033 1L0 4.53452L2.37665 44L59.5799 40.472L70.7626 22.24L72 20.1996L70.5204 18.304V18.2974Z"
        fill="white" />
      <path
        d="M30.5136 20.9637L22.5787 21.4467L22.8185 25.2842L26.5228 25.0593L26.6361 26.9384C25.8366 27.5405 24.7773 27.8977 23.558 27.9772C20.8265 28.1492 18.7012 26.1709 18.5213 23.2927C18.4414 21.976 18.8278 20.7057 19.6206 19.7197C20.4068 18.7406 21.4994 18.1649 22.692 18.0921C24.5441 17.9796 25.6634 18.5024 26.9559 19.4551L27.229 19.6536L29.7674 16.1799L29.5076 15.9814C27.4156 14.4266 25.4102 13.8575 22.5721 14.0296C17.4686 14.3406 13.711 18.5288 14.0175 23.5573C14.3239 28.5396 18.0682 32 23.0317 32C23.2516 32 23.4714 32 23.6913 31.9802C26.4429 31.8148 28.8613 30.7429 30.8867 28.8042L31 28.6983L30.527 20.9504L30.5136 20.9637Z"
        fill="#1A1A1A" />
      <path
        d="M53.9897 21.4411C53.6783 16.3211 49.6036 12.696 44.4906 13.0201C39.4362 13.3376 35.7183 17.525 36.0168 22.5591C36.3088 27.4675 40.0786 31 44.8994 31C45.1006 31 45.3082 31 45.5094 30.9802C50.5573 30.6627 54.2817 26.4753 53.9833 21.4411H53.9897ZM45.3212 26.9251C44.1014 26.9979 42.927 26.601 42.038 25.794C41.0713 24.9208 40.5003 23.6771 40.4159 22.2879C40.338 20.9384 40.7144 19.6683 41.48 18.7091C42.2587 17.7367 43.4006 17.1546 44.6853 17.0752C44.7826 17.0752 44.88 17.0686 44.9773 17.0686C46.0933 17.0686 47.1445 17.4655 47.9685 18.213C48.9352 19.0862 49.5062 20.3298 49.5906 21.719C49.7593 24.5238 47.923 26.7598 45.3212 26.9317V26.9251Z"
        fill="#1A1A1A" />

    </symbol>

    <symbol id="telegram" viewBox="0 0 27 23">
      <path
        d="M26.1966 1.11141C25.8714 0.717226 25.3846 0.5 24.8257 0.5C24.5217 0.5 24.1999 0.563618 23.869 0.68884L1.34632 9.21542C0.151071 9.66779 -0.00990507 10.3466 0.000447753 10.7112C0.0108006 11.0756 0.210346 11.7444 1.42955 12.1289C1.43685 12.1314 1.44416 12.1334 1.45147 12.1356L4.6101 13.0319L19.9932 5.2377C20.3765 5.04323 20.8462 5.19422 21.0421 5.57452C21.196 5.87328 21.1342 6.22438 20.915 6.4555L12.3625 15.4691L12.1185 16.4497L19.4053 22.2689C19.409 22.2717 19.4126 22.2748 19.4165 22.2776C19.8822 22.6359 20.3909 22.8252 20.8876 22.8254C21.8583 22.8254 22.6311 22.1129 22.8563 21.0105L26.5465 2.93901C26.6945 2.21385 26.5703 1.56459 26.1966 1.11141Z"
        fill="white" />
      <path
        d="M10.8981 14.9018C10.9292 14.7768 10.9917 14.6576 11.0869 14.5571L16.6992 8.64289L6.28481 13.9196L8.64952 20.6266C8.78431 21.0087 8.98488 21.3341 9.23294 21.5887L10.8981 14.9018Z"
        fill="white" />
      <path
        d="M10.6846 22.2096C11.2467 22.205 11.799 21.9698 12.283 21.5279L14.0131 19.948L11.7063 18.1059L10.6846 22.2096Z"
        fill="white" />

    </symbol>

    <symbol id="instagram" viewBox="0 0 26 27">
      <path
        d="M17.875 0H8.125C3.63838 0 0 3.60835 0 8.05795V17.7275C0 22.1771 3.63838 25.7855 8.125 25.7855H17.875C22.3616 25.7855 26 22.1771 26 17.7275V8.05795C26 3.60835 22.3616 0 17.875 0ZM23.5625 17.7275C23.5625 20.8379 21.0112 23.3681 17.875 23.3681H8.125C4.98875 23.3681 2.4375 20.8379 2.4375 17.7275V8.05795C2.4375 4.94758 4.98875 2.41739 8.125 2.41739H17.875C21.0112 2.41739 23.5625 4.94758 23.5625 8.05795V17.7275Z"
        fill="white" />
      <path
        d="M13 6.44636C9.41037 6.44636 6.5 9.33272 6.5 12.8927C6.5 16.4527 9.41037 19.3391 13 19.3391C16.5896 19.3391 19.5 16.4527 19.5 12.8927C19.5 9.33272 16.5896 6.44636 13 6.44636ZM13 16.9217C10.7607 16.9217 8.9375 15.1135 8.9375 12.8927C8.9375 10.6703 10.7607 8.86375 13 8.86375C15.2393 8.86375 17.0625 10.6703 17.0625 12.8927C17.0625 15.1135 15.2393 16.9217 13 16.9217Z"
        fill="white" />
      <path
        d="M19.9877 6.82197C20.4661 6.82197 20.8538 6.43739 20.8538 5.96299C20.8538 5.48859 20.4661 5.10402 19.9877 5.10402C19.5094 5.10402 19.1216 5.48859 19.1216 5.96299C19.1216 6.43739 19.5094 6.82197 19.9877 6.82197Z"
        fill="white" />

    </symbol>
    <symbol id="facebook" viewBox="0 0 27 27">
      <path
        d="M26.6667 13.2233C26.6667 5.92404 20.6933 0 13.3333 0C5.97333 0 0 5.92404 0 13.2233C0 19.6234 4.58667 24.9524 10.6667 26.1821V17.1903H8V13.2233H10.6667V9.91748C10.6667 7.36538 12.76 5.28932 15.3333 5.28932H18.6667V9.25632H16C15.2667 9.25632 14.6667 9.85137 14.6667 10.5786V13.2233H18.6667V17.1903H14.6667V26.3805C21.4 25.7193 26.6667 20.0862 26.6667 13.2233Z"
        fill="white" />
    </symbol>

    <symbol id="youtube" viewBox="0 0 32 23">
      <path
        d="M30.64 2.10251C29.772 0.571247 28.83 0.289591 26.912 0.182482C24.996 0.0535544 20.178 0 16.004 0C11.822 0 7.002 0.0535545 5.088 0.180498C3.174 0.289591 2.23 0.569263 1.354 2.10251C0.46 3.63178 0 6.26587 0 10.9033C0 10.9072 0 10.9092 0 10.9092C0 10.9132 0 10.9152 0 10.9152V10.9191C0 15.5367 0.46 18.1906 1.354 19.7041C2.23 21.2353 3.172 21.513 5.086 21.6419C7.002 21.753 11.822 21.8185 16.004 21.8185C20.178 21.8185 24.996 21.753 26.914 21.6439C28.832 21.515 29.774 21.2373 30.642 19.706C31.544 18.1926 32 15.5387 32 10.9211C32 10.9211 32 10.9152 32 10.9112V10.9053C32 6.26587 31.544 3.63178 30.64 2.10251Z"
        fill="white" />
      <path d="M12 16.8597V4.95874L22 10.9092L12 16.8597Z" fill="#1A1A1A" />
    </symbol>

    <symbol viewBox="0 0 22 27" id="tiktok">
      <path
        d="M17.4541 4.07333C16.495 2.94612 15.9664 1.49851 15.9668 0H11.6314V17.9111C11.5979 18.8804 11.2005 19.7985 10.5226 20.472C9.8448 21.1456 8.93953 21.5221 7.99745 21.5222C6.0051 21.5222 4.34949 19.8467 4.34949 17.7667C4.34949 15.2822 6.67857 13.4189 9.07781 14.1844V9.62C4.23725 8.95555 0 12.8267 0 17.7667C0 22.5767 3.87245 26 7.98342 26C12.389 26 15.9668 22.3167 15.9668 17.7667V8.68111C17.7249 9.98089 19.8356 10.6783 22 10.6744V6.21111C22 6.21111 19.3622 6.34111 17.4541 4.07333Z"
        fill="white" />
    </symbol>
    <symbol id="discord" viewBox="0 0 30 23">
      <path
        d="M25.0377 1.82833C23.2009 0.976058 21.2123 0.35747 19.1408 6.3231e-05C19.1227 -0.000514947 19.1046 0.00287778 19.0879 0.0100029C19.0712 0.0171281 19.0563 0.0278126 19.0442 0.0413027C18.7956 0.494934 18.5056 1.08603 18.3122 1.53966C16.1151 1.20975 13.8806 1.20975 11.6835 1.53966C11.4901 1.07228 11.2001 0.494934 10.9378 0.0413027C10.9239 0.0138099 10.8825 6.3231e-05 10.8411 6.3231e-05C8.7696 0.35747 6.79478 0.976058 4.94425 1.82833C4.93044 1.82833 4.91663 1.84208 4.90282 1.85583C1.14653 7.45061 0.110787 12.8942 0.621754 18.2828C0.621754 18.3103 0.635564 18.3378 0.663183 18.3515C3.14897 20.166 5.53808 21.2657 7.89957 21.9943C7.941 22.0081 7.98243 21.9943 7.99624 21.9668C8.54864 21.2108 9.04579 20.4135 9.4739 19.5749C9.50152 19.52 9.4739 19.465 9.41866 19.4512C8.6315 19.1488 7.88576 18.7914 7.15384 18.379C7.0986 18.3515 7.0986 18.269 7.14003 18.2278C7.29194 18.1178 7.44385 17.9941 7.59575 17.8841C7.62337 17.8566 7.6648 17.8566 7.69242 17.8704C12.443 20.0286 17.5665 20.0286 22.2619 17.8704C22.2895 17.8566 22.3309 17.8566 22.3585 17.8841C22.5105 18.0078 22.6624 18.1178 22.8143 18.2415C22.8695 18.2828 22.8695 18.3653 22.8005 18.3927C22.0823 18.8189 21.3228 19.1625 20.5356 19.465C20.4804 19.4787 20.4666 19.5474 20.4804 19.5887C20.9223 20.4272 21.4195 21.2245 21.9581 21.9806C21.9995 21.9943 22.0409 22.0081 22.0823 21.9943C24.4576 21.2657 26.8468 20.166 29.3325 18.3515C29.3602 18.3378 29.374 18.3103 29.374 18.2828C29.9816 12.0557 28.3658 6.65332 25.0929 1.85583C25.0791 1.84208 25.0653 1.82833 25.0377 1.82833ZM10.192 14.9974C8.7696 14.9974 7.58194 13.6915 7.58194 12.0831C7.58194 10.4748 8.74198 9.16891 10.192 9.16891C11.6559 9.16891 12.8159 10.4886 12.8021 12.0831C12.8021 13.6915 11.6421 14.9974 10.192 14.9974ZM19.8175 14.9974C18.3951 14.9974 17.2074 13.6915 17.2074 12.0831C17.2074 10.4748 18.3675 9.16891 19.8175 9.16891C21.2814 9.16891 22.4414 10.4886 22.4276 12.0831C22.4276 13.6915 21.2814 14.9974 19.8175 14.9974Z"
        fill="white" />
    </symbol>

    <symbol id="linkedin" viewBox="0 0 28 29">
      <path
        d="M26.88 0H1.12C0.5005 0 0 0.5005 0 1.12V26.88C0 27.4995 0.5005 28 1.12 28H26.88C27.4995 28 28 27.4995 28 26.88V1.12C28 0.5005 27.4995 0 26.88 0ZM8.3055 23.8595H4.151V10.4965H8.3055V23.8595ZM6.23 8.6695C5.75374 8.6695 5.28818 8.52827 4.89219 8.26368C4.49619 7.99908 4.18755 7.62301 4.0053 7.183C3.82304 6.743 3.77536 6.25883 3.86827 5.79172C3.96118 5.32462 4.19052 4.89555 4.52729 4.55879C4.86405 4.22202 5.29312 3.99268 5.76022 3.89977C6.22733 3.80686 6.7115 3.85454 7.1515 4.0368C7.59151 4.21905 7.96758 4.52769 8.23218 4.92369C8.49677 5.31968 8.638 5.78524 8.638 6.2615C8.6345 7.5915 7.5565 8.6695 6.23 8.6695ZM23.8595 23.8595H19.7085V17.36C19.7085 15.8095 19.6805 13.818 17.549 13.818C15.3895 13.818 15.057 15.505 15.057 17.248V23.8595H10.9095V10.4965H14.8925V12.3235H14.9485C15.5015 11.2735 16.856 10.164 18.879 10.164C23.086 10.164 23.8595 12.9325 23.8595 16.5305V23.8595Z"
        fill="white" />
    </symbol>

    <symbol id="tel" viewBox="0 0 24 24">
      <path fill-rule="evenodd" clip-rule="evenodd"
        d="M7 3C6.44772 3 6 3.44772 6 4V20C6 20.5523 6.44772 21 7 21H17C17.5523 21 18 20.5523 18 20V4C18 3.44772 17.5523 3 17 3H7ZM4 4C4 2.34315 5.34315 1 7 1H17C18.6569 1 20 2.34315 20 4V20C20 21.6569 18.6569 23 17 23H7C5.34315 23 4 21.6569 4 20V4Z"
        fill="white" />
      <path fill-rule="evenodd" clip-rule="evenodd"
        d="M11 18C11 17.4477 11.4477 17 12 17H12.01C12.5623 17 13.01 17.4477 13.01 18C13.01 18.5523 12.5623 19 12.01 19H12C11.4477 19 11 18.5523 11 18Z"
        fill="white" />
    </symbol>

    <symbol id="mastercard" viewBox="0 0 39 26">
      <rect x="0.5" width="38" height="26" rx="4" fill="white" />
      <path
        d="M29.7534 12.6834C29.7534 16.0592 27.0452 18.8183 23.6599 18.8183C20.3068 18.8183 17.5664 16.0592 17.5664 12.6834C17.5664 9.30752 20.2746 6.54841 23.6277 6.54841C27.0452 6.54841 29.7534 9.30752 29.7534 12.6834Z"
        fill="#FFB600" />
      <path
        d="M23.6599 6.54841C27.0129 6.54841 29.7534 9.30752 29.7534 12.6834C29.7534 16.0592 27.0452 18.8183 23.6599 18.8183C20.3068 18.8183 17.5664 16.0592 17.5664 12.6834"
        fill="#F7981D" />
      <path
        d="M23.6599 6.54841C27.0129 6.54841 29.7534 9.30752 29.7534 12.6834C29.7534 16.0592 27.0452 18.8183 23.6599 18.8183"
        fill="#FF8500" />
      <path
        d="M15.4705 6.54841C12.1496 6.58087 9.44141 9.30752 9.44141 12.6834C9.44141 16.0592 12.1496 18.8183 15.5349 18.8183C17.1148 18.8183 18.5334 18.2016 19.6295 17.2278C19.8552 17.033 20.0487 16.8058 20.2421 16.5786H18.9847C18.8235 16.3838 18.6623 16.1566 18.5334 15.9618H20.6935C20.8225 15.7671 20.9514 15.5399 21.0481 15.3126H18.1787C18.082 15.1179 17.9853 14.8907 17.9208 14.6634H21.2738C21.4673 14.0467 21.5962 13.3975 21.5962 12.7158C21.5962 12.2614 21.5318 11.8394 21.4673 11.4174H17.7273C17.7596 11.1902 17.8241 10.9954 17.8885 10.7682H21.2416C21.1771 10.541 21.0804 10.3138 20.9837 10.119H18.1465C18.2432 9.8918 18.3722 9.69704 18.5011 9.46982H20.6613C20.5323 9.24259 20.3711 9.01537 20.1776 8.82061H18.9847C19.1782 8.59339 19.3716 8.39863 19.5973 8.20387C18.5334 7.19761 17.0886 6.54838 15.5088 6.54838C15.5088 6.48346 15.5027 6.54841 15.4705 6.54841Z"
        fill="#FF5050" />
      <path
        d="M9.44141 12.6834C9.44141 16.0592 12.1496 18.8183 15.5349 18.8183C17.1148 18.8183 18.5334 18.2016 19.6295 17.2278C19.8552 17.033 20.0487 16.8058 20.2421 16.5786H18.9847C18.8235 16.3838 18.6623 16.1566 18.5334 15.9618H20.6935C20.8225 15.7671 20.9514 15.5399 21.0481 15.3126H18.1787C18.082 15.1179 17.9853 14.8907 17.9208 14.6634H21.2738C21.4673 14.0467 21.5962 13.3975 21.5962 12.7158C21.5962 12.2614 21.5318 11.8394 21.4673 11.4174H17.7273C17.7596 11.1902 17.8241 10.9954 17.8885 10.7682H21.2416C21.1771 10.541 21.0804 10.3138 20.9837 10.119H18.1465C18.2432 9.8918 18.3722 9.69704 18.5011 9.46982H20.6613C20.5323 9.24259 20.3711 9.01537 20.1776 8.82061H18.9847C19.1782 8.59339 19.3716 8.39863 19.5973 8.20387C18.5334 7.19761 17.0886 6.54838 15.5088 6.54838"
        fill="#E52836" />
      <path
        d="M15.5349 18.8183C17.1148 18.8183 18.5334 18.2016 19.6295 17.2278C19.8552 17.033 20.0487 16.8058 20.2421 16.5786H18.9847C18.8235 16.3838 18.6623 16.1566 18.5334 15.9618H20.6935C20.8225 15.7671 20.9514 15.5399 21.0481 15.3126H18.1787C18.082 15.1179 17.9853 14.8907 17.9208 14.6634H21.2738C21.4673 14.0467 21.5962 13.3975 21.5962 12.7158C21.5962 12.2614 21.5318 11.8394 21.4673 11.4174H17.7273C17.7596 11.1902 17.8241 10.9954 17.8885 10.7682H21.2416C21.1771 10.541 21.0804 10.3138 20.9837 10.119H18.1465C18.2432 9.8918 18.3722 9.69704 18.5011 9.46982H20.6613C20.5323 9.24259 20.3711 9.01537 20.1776 8.82061H18.9847C19.1782 8.59339 19.3716 8.39863 19.5973 8.20387C18.5334 7.19761 17.0886 6.54838 15.5088 6.54838"
        fill="#CB2026" />
      <path
        d="M17.6949 14.2414L17.7916 13.6896C17.7594 13.6896 17.6949 13.7221 17.6304 13.7221C17.4047 13.7221 17.3725 13.5922 17.4047 13.5273L17.5982 12.3912H17.9528L18.0495 11.7745H17.7271L17.7916 11.3849H17.1468C17.1468 11.3849 16.7599 13.5273 16.7599 13.787C16.7599 14.1765 16.9856 14.3388 17.2758 14.3388C17.4692 14.3388 17.6304 14.2739 17.6949 14.2414Z"
        fill="white" />
      <path
        d="M17.9208 13.2028C17.9208 14.1117 18.5334 14.3389 19.0492 14.3389C19.5328 14.3389 19.7263 14.2415 19.7263 14.2415L19.8552 13.6248C19.8552 13.6248 19.5006 13.7871 19.1782 13.7871C18.4689 13.7871 18.5978 13.2677 18.5978 13.2677H19.9197C19.9197 13.2677 20.0164 12.8457 20.0164 12.6834C20.0164 12.2614 19.7908 11.7421 19.0815 11.7421C18.4044 11.6772 17.9208 12.3913 17.9208 13.2028ZM19.0492 12.2614C19.4039 12.2614 19.3394 12.6834 19.3394 12.7159H18.6301C18.6301 12.6834 18.6946 12.2614 19.0492 12.2614Z"
        fill="white" />
      <path
        d="M23.1437 14.2414L23.2727 13.5273C23.2727 13.5273 22.9503 13.6896 22.7246 13.6896C22.2732 13.6896 22.0798 13.3326 22.0798 12.943C22.0798 12.164 22.4667 11.742 22.918 11.742C23.2404 11.742 23.4984 11.9368 23.4984 11.9368L23.5951 11.2551C23.5951 11.2551 23.2082 11.0928 22.8535 11.0928C22.112 11.0928 21.3705 11.742 21.3705 12.9755C21.3705 13.787 21.7573 14.3388 22.5311 14.3388C22.7891 14.3388 23.1437 14.2414 23.1437 14.2414Z"
        fill="white" />
      <path
        d="M14.1486 11.6772C13.6972 11.6772 13.3748 11.8071 13.3748 11.8071L13.2781 12.3589C13.2781 12.3589 13.5683 12.229 13.9874 12.229C14.2131 12.229 14.4065 12.2615 14.4065 12.4563C14.4065 12.5861 14.3743 12.6186 14.3743 12.6186C14.3743 12.6186 14.1809 12.6186 14.0841 12.6186C13.536 12.6186 12.9235 12.8458 12.9235 13.5924C12.9235 14.1766 13.3103 14.3065 13.536 14.3065C13.9874 14.3065 14.1809 14.0143 14.2131 14.0143L14.1809 14.274H14.7612L15.0191 12.4887C15.0191 11.7097 14.3743 11.6772 14.1486 11.6772ZM14.2776 13.1379C14.2776 13.2353 14.2131 13.7547 13.8262 13.7547C13.6328 13.7547 13.5683 13.5924 13.5683 13.495C13.5683 13.3327 13.665 13.1055 14.1486 13.1055C14.2453 13.1379 14.2776 13.1379 14.2776 13.1379Z"
        fill="white" />
      <path
        d="M15.6317 14.3063C15.7929 14.3063 16.5989 14.3387 16.5989 13.4623C16.5989 12.6508 15.8251 12.8131 15.8251 12.4885C15.8251 12.3262 15.9541 12.2613 16.1798 12.2613C16.2765 12.2613 16.6312 12.2938 16.6312 12.2938L16.7279 11.7095C16.7279 11.7095 16.5022 11.6446 16.1153 11.6446C15.6317 11.6446 15.1481 11.8393 15.1481 12.4885C15.1481 13.2351 15.9541 13.1702 15.9541 13.4623C15.9541 13.6571 15.7284 13.6895 15.5672 13.6895C15.277 13.6895 14.9869 13.5922 14.9869 13.5922L14.8902 14.1764C14.9224 14.2414 15.0836 14.3063 15.6317 14.3063Z"
        fill="white" />
      <path
        d="M28.4958 11.1582L28.3668 12.0346C28.3668 12.0346 28.1089 11.71 27.7543 11.71C27.1739 11.71 26.6581 12.4242 26.6581 13.2681C26.6581 13.7875 26.916 14.3393 27.4641 14.3393C27.851 14.3393 28.0767 14.0796 28.0767 14.0796L28.0444 14.3068H28.6893L29.1729 11.1907L28.4958 11.1582ZM28.2056 12.8786C28.2056 13.2357 28.0444 13.6901 27.6898 13.6901C27.4641 13.6901 27.3351 13.4953 27.3351 13.1707C27.3351 12.6514 27.5608 12.3268 27.851 12.3268C28.0767 12.3268 28.2056 12.4891 28.2056 12.8786Z"
        fill="white" />
      <path
        d="M10.6343 14.2744L11.0212 11.9373L11.0857 14.2744H11.537L12.3753 11.9373L12.0206 14.2744H12.6977L13.2136 11.1582H12.1496L11.5048 13.0734L11.4725 11.1582H10.5376L10.0217 14.2744H10.6343Z"
        fill="white" />
      <path
        d="M20.6288 14.274C20.8223 13.2028 20.8545 12.3264 21.3059 12.4887C21.3704 12.0667 21.4671 11.9044 21.5316 11.7421C21.5316 11.7421 21.4993 11.7421 21.4026 11.7421C21.1124 11.7421 20.8867 12.1316 20.8867 12.1316L20.9512 11.7745H20.3386L19.9195 14.3064H20.6288V14.274Z"
        fill="white" />
      <path
        d="M24.6266 11.6772C24.1753 11.6772 23.8528 11.8071 23.8528 11.8071L23.7561 12.3589C23.7561 12.3589 24.0463 12.229 24.4654 12.229C24.6911 12.229 24.8846 12.2615 24.8846 12.4563C24.8846 12.5861 24.8523 12.6186 24.8523 12.6186C24.8523 12.6186 24.6589 12.6186 24.5621 12.6186C24.014 12.6186 23.4015 12.8458 23.4015 13.5924C23.4015 14.1766 23.7884 14.3065 24.014 14.3065C24.4654 14.3065 24.6589 14.0143 24.6911 14.0143L24.6589 14.274H25.2392L25.4971 12.4887C25.5294 11.7097 24.8523 11.6772 24.6266 11.6772ZM24.7878 13.1379C24.7878 13.2353 24.7233 13.7547 24.3365 13.7547C24.143 13.7547 24.0785 13.5924 24.0785 13.495C24.0785 13.3327 24.1753 13.1055 24.6589 13.1055C24.7556 13.1379 24.7556 13.1379 24.7878 13.1379Z"
        fill="white" />
      <path
        d="M26.0455 14.274C26.2389 13.2028 26.2712 12.3264 26.7225 12.4887C26.787 12.0667 26.8837 11.9044 26.9482 11.7421C26.9482 11.7421 26.916 11.7421 26.8193 11.7421C26.5291 11.7421 26.3034 12.1316 26.3034 12.1316L26.3679 11.7745H25.7553L25.3362 14.3064H26.0455V14.274Z"
        fill="white" />
      <path
        d="M16.6956 13.787C16.6956 14.1765 16.9212 14.3388 17.2114 14.3388C17.4371 14.3388 17.6304 14.2739 17.6949 14.2414L17.7916 13.6896C17.7594 13.6896 17.6949 13.7221 17.6304 13.7221C17.4047 13.7221 17.3725 13.5922 17.4047 13.5273L17.5982 12.3912H17.9528L18.0495 11.7745H17.7271L17.7916 11.3849"
        fill="#DCE5E5" />
      <path
        d="M18.2433 13.2028C18.2433 14.1117 18.5334 14.3389 19.0492 14.3389C19.5328 14.3389 19.7263 14.2415 19.7263 14.2415L19.8552 13.6248C19.8552 13.6248 19.5006 13.7871 19.1782 13.7871C18.4689 13.7871 18.5978 13.2677 18.5978 13.2677H19.9197C19.9197 13.2677 20.0164 12.8457 20.0164 12.6834C20.0164 12.2614 19.7908 11.7421 19.0815 11.7421C18.4044 11.6772 18.2433 12.3913 18.2433 13.2028ZM19.0492 12.2614C19.4039 12.2614 19.4684 12.6834 19.4684 12.7159H18.6301C18.6301 12.6834 18.6946 12.2614 19.0492 12.2614Z"
        fill="#DCE5E5" />
      <path
        d="M23.1437 14.2414L23.2727 13.5273C23.2727 13.5273 22.9503 13.6896 22.7246 13.6896C22.2732 13.6896 22.0798 13.3326 22.0798 12.943C22.0798 12.164 22.4667 11.742 22.918 11.742C23.2404 11.742 23.4984 11.9368 23.4984 11.9368L23.5951 11.2551C23.5951 11.2551 23.2082 11.0928 22.8535 11.0928C22.112 11.0928 21.6929 11.742 21.6929 12.9755C21.6929 13.787 21.7574 14.3388 22.5311 14.3388C22.7891 14.3388 23.1437 14.2414 23.1437 14.2414Z"
        fill="#DCE5E5" />
      <path
        d="M13.2781 12.3913C13.2781 12.3913 13.5683 12.2615 13.9874 12.2615C14.2131 12.2615 14.4065 12.2939 14.4065 12.4887C14.4065 12.6185 14.3743 12.651 14.3743 12.651C14.3743 12.651 14.1809 12.651 14.0841 12.651C13.536 12.651 12.9235 12.8782 12.9235 13.6248C12.9235 14.2091 13.3103 14.3389 13.536 14.3389C13.9874 14.3389 14.1809 14.0468 14.2131 14.0468L14.1809 14.3064H14.7612L15.0191 12.5211C15.0191 11.7745 14.3743 11.7421 14.1164 11.7421L13.2781 12.3913ZM14.6 13.1379C14.6 13.2353 14.2131 13.7547 13.8262 13.7547C13.6328 13.7547 13.5683 13.5924 13.5683 13.495C13.5683 13.3327 13.665 13.1055 14.1486 13.1055C14.2453 13.1379 14.6 13.1379 14.6 13.1379Z"
        fill="#DCE5E5" />
      <path
        d="M14.9222 14.2414C14.9222 14.2414 15.1156 14.3063 15.6637 14.3063C15.8249 14.3063 16.631 14.3387 16.631 13.4623C16.631 12.6508 15.8572 12.8131 15.8572 12.4885C15.8572 12.3262 15.9861 12.2613 16.2118 12.2613C16.3085 12.2613 16.6632 12.2938 16.6632 12.2938L16.7599 11.7095C16.7599 11.7095 16.5342 11.6446 16.1473 11.6446C15.6637 11.6446 15.5025 11.8393 15.5025 12.4885C15.5025 13.2351 15.9861 13.1702 15.9861 13.4623C15.9861 13.6571 15.7604 13.6895 15.5992 13.6895"
        fill="#DCE5E5" />
      <path
        d="M28.3668 12.0346C28.3668 12.0346 28.1089 11.71 27.7543 11.71C27.1739 11.71 26.9804 12.4245 26.9804 13.2684C26.9804 13.7878 26.916 14.3393 27.4641 14.3393C27.851 14.3393 28.0767 14.0796 28.0767 14.0796L28.0444 14.3068H28.6893L29.1729 11.1907L28.3668 12.0346ZM28.3345 12.8789C28.3345 13.236 28.0444 13.6901 27.6898 13.6901C27.4641 13.6901 27.3351 13.4953 27.3351 13.1707C27.3351 12.6514 27.5608 12.3268 27.851 12.3268C28.0767 12.3268 28.3345 12.4894 28.3345 12.8789Z"
        fill="#DCE5E5" />
      <path
        d="M10.6343 14.2744L11.0212 11.9373L11.0857 14.2744H11.537L12.3753 11.9373L12.0206 14.2744H12.6977L13.2136 11.1582H12.4075L11.5048 13.0734L11.4725 11.1582H11.1179L10.0217 14.2744H10.6343Z"
        fill="#DCE5E5" />
      <path
        d="M19.952 14.274L20.6288 14.274C20.8223 13.2028 20.8545 12.3264 21.3059 12.4887C21.3704 12.0667 21.4671 11.9044 21.5316 11.7421C21.5316 11.7421 21.4993 11.7421 21.4026 11.7421C21.1124 11.7421 20.8867 12.1316 20.8867 12.1316L20.9512 11.7745"
        fill="#DCE5E5" />
      <path
        d="M23.7561 12.3913C23.7561 12.3913 24.0463 12.2615 24.4654 12.2615C24.6911 12.2615 24.8846 12.2939 24.8846 12.4887C24.8846 12.6185 24.8523 12.651 24.8523 12.651C24.8523 12.651 24.6589 12.651 24.5621 12.651C24.014 12.651 23.4015 12.8782 23.4015 13.6248C23.4015 14.2091 23.7884 14.3389 24.014 14.3389C24.4654 14.3389 24.6589 14.0468 24.6911 14.0468L24.6589 14.3064H25.2392L25.4971 12.5211C25.4971 11.7745 24.8523 11.7421 24.5944 11.7421L23.7561 12.3913ZM25.078 13.1379C25.078 13.2353 24.6911 13.7546 24.3042 13.7546C24.1108 13.7546 24.0463 13.5923 24.0463 13.4949C24.0463 13.3326 24.143 13.1054 24.6266 13.1054C24.7556 13.1379 25.078 13.1379 25.078 13.1379Z"
        fill="#DCE5E5" />
      <path
        d="M25.3684 14.274L26.0455 14.274C26.2389 13.2028 26.2712 12.3264 26.7225 12.4887C26.787 12.0667 26.8837 11.9044 26.9482 11.7421C26.9482 11.7421 26.916 11.7421 26.8193 11.7421C26.5291 11.7421 26.3034 12.1316 26.3034 12.1316L26.3679 11.7745"
        fill="#DCE5E5" />

    </symbol>

    <symbol id="visa" viewBox="0 0 39 26">
      <rect x="0.5" width="38" height="26" rx="4" fill="white" />
      <path d="M18.413 8.16756H15.7698L14.119 17.8551H16.7578L18.413 8.16756Z" fill="#059BBF" />
      <path d="M10.5452 17.8453L14.7022 8.17406H11.9048L9.31877 14.7816L9.04275 13.784C8.53584 12.5838 7.08709 10.8563 5.38629 9.76888L7.75016 17.8486L10.5452 17.8453Z" fill="#059BBF" />
      <path d="M25.952 14.6882C25.9618 13.5883 25.2556 12.7494 23.7338 12.0565C22.809 11.609 22.2453 11.3105 22.252 10.8564C22.252 10.4552 22.7294 10.0242 23.7637 10.0242C24.6292 10.0109 25.2523 10.1999 25.7397 10.3955L25.9785 10.505L26.3367 8.40629C25.8128 8.21057 24.9938 8.00172 23.9695 8.00172C21.3602 8.00172 19.5235 9.31473 19.5069 11.1979C19.4903 12.5904 20.82 13.3663 21.8211 13.8303C22.8488 14.3034 23.1936 14.6062 23.187 15.0305C23.1804 15.6794 22.368 15.9753 21.6088 15.9753C20.5512 15.9753 19.9909 15.8295 19.1218 15.4675L18.7841 15.3123L18.4132 17.4832C19.0294 17.7525 20.1698 17.9879 21.3536 17.9977C24.1284 17.9977 25.9321 16.7014 25.952 14.6882Z" fill="#059BBF" />
      <path d="M29.0918 16.4031C29.3935 16.4031 32.0889 16.4064 32.4736 16.4064C32.5532 16.7437 32.7952 17.8585 32.7952 17.8585H35.2453L33.1068 8.17755H31.0679C30.4346 8.17755 29.9639 8.34996 29.6853 8.97978L25.7632 17.8585H28.5384C28.5384 17.8585 28.989 16.6651 29.0918 16.4031ZM30.9019 11.7117C30.8888 11.7382 31.1209 11.1514 31.2535 10.7867L31.4324 11.6221C31.4324 11.6221 31.9365 13.9364 32.0425 14.4205H29.851C30.0698 13.8635 30.9019 11.7117 30.9019 11.7117Z" fill="#059BBF" />
      <path d="M36.2538 -0.103516H2.74623C1.50566 -0.103516 0.5 0.902149 0.5 2.14279V4.47415H38.5V2.14279C38.5 0.902149 37.4944 -0.103516 36.2538 -0.103516Z" fill="#059BBF" />
      <path d="M8.93407 13.1508L8.04181 8.87049C7.88929 8.28023 7.44546 8.10463 6.8909 8.0814H2.80011L2.76367 8.27697C5.94981 9.04936 8.05799 10.9127 8.93407 13.1508Z" fill="#F79F1A" />
      <path d="M36.2538 26.103H2.74623C1.50566 26.103 0.5 25.0972 0.5 23.8567V21.5253H38.5V23.8567C38.5 25.0972 37.4944 26.103 36.2538 26.103Z" fill="#F79F1A" />
    
    </symbol>
  </defs>
</svg>